<?xml version="1.0" encoding="UTF-8" standalone="no"?>
<!-- Created with Inkscape (http://www.inkscape.org/) -->

<svg
   width="346.02112mm"
   height="348.56158mm"
   viewBox="0 0 346.02112 348.56158"
   version="1.1"
   id="svg1"
   inkscape:export-filename="legios-blau.svg"
   inkscape:export-xdpi="96"
   inkscape:export-ydpi="96"
   inkscape:version="1.4.2 (ebf0e940d0, 2025-05-08)"
   sodipodi:docname="legios-blau.svg"
   xmlns:inkscape="http://www.inkscape.org/namespaces/inkscape"
   xmlns:sodipodi="http://sodipodi.sourceforge.net/DTD/sodipodi-0.dtd"
   xmlns="http://www.w3.org/2000/svg"
   xmlns:svg="http://www.w3.org/2000/svg">
  <sodipodi:namedview
     id="namedview1"
     pagecolor="#505050"
     bordercolor="#ffffff"
     borderopacity="1"
     inkscape:showpageshadow="0"
     inkscape:pageopacity="0"
     inkscape:pagecheckerboard="1"
     inkscape:deskcolor="#505050"
     inkscape:document-units="mm"
     inkscape:zoom="0.43117284"
     inkscape:cx="-100.88762"
     inkscape:cy="1254.7172"
     inkscape:window-width="1912"
     inkscape:window-height="2122"
     inkscape:window-x="0"
     inkscape:window-y="30"
     inkscape:window-maximized="1"
     inkscape:current-layer="layer1" />
  <defs
     id="defs1" />
  <g
     inkscape:label="Layer 1"
     inkscape:groupmode="layer"
     id="layer1"
     transform="translate(23.547921,82.020833)">
    <g
       id="g16"
       inkscape:label="Legios"
       inkscape:export-filename="legios-blau.svg"
       inkscape:export-xdpi="96"
       inkscape:export-ydpi="96"
       transform="matrix(0.26458333,0,0,0.26458333,-173.03846,-82.020833)">
      <path
         class="cls-1"
         d="m 1698.5,1134.3 c 3.9,-9.3 9.1,-22.6 11.9,-33.7 l 0.2,-0.8 0.6,-2.5 29,-35.1 -24.6,-2.5 0.9,-11.1 c 0,-0.2 0.2,-2.1 0.3,-5.5 l 0.6,-25.4 -0.7,-28 c 0,-1.9 -0.2,-3.8 -0.3,-5.8 l -0.3,-4.7 -26.3,10.8 c -4.2,17.8 -16.1,64.5 -29.7,88.8 4.7,10.8 19.4,41.7 38.3,55.5 z"
         id="path3"
         style="fill:#021f66" />
      <path
         class="cls-1"
         d="m 1457.9,539.7 c 0.5,9.6 0.8,19.1 1.1,28.6 v 8.6 c 0.2,6.8 0.3,13.5 0.3,20.2 v 10.7 c 0,6 -0.2,11.9 -0.3,17.8 0,3.2 -0.2,6.4 -0.3,9.6 v 2.8 c 16.2,-7.9 32.8,-11.9 49.5,-11.9 16.7,0 17.1,1 25.6,3.1 19.1,4.6 37.9,14.1 56.2,28.5 -47.7,-72.2 -99.7,-106.4 -131.7,-121.8 l -0.4,3.9 v 0 z"
         id="path4"
         style="fill:#021f66" />
      <path
         class="cls-1"
         d="m 1226.7,676.6 c 4.7,-9.1 112.8,-213.9 170.7,-273.6 11.2,17.2 31,55.2 36.6,115.9 0.7,6.8 1.1,13.5 1.3,20.3 v 0.8 c 2.1,40.3 2.1,79.9 0,117.5 -6.8,119.7 -33.7,191.9 -45.2,217.9 C 1336.8,836.2 1239,708.6 1238,707.2 l -1.8,-2.4 -2.8,-1.2 c -39.1,-16.3 -76.2,-24.6 -110.3,-24.6 -34.1,0 -85.5,14.3 -119.5,42.5 -7,-7.3 -13.7,-13.8 -20.5,-19.6 l -6.7,-5.7 -82.2,52.7 19.6,-89 -10.1,-3.5 c -15.4,-5.3 -31.1,-9 -46.8,-11 -29.6,-3.8 -59.2,-2 -88.4,5.4 26.9,-43.4 74.6,-101.6 82.8,-111.5 8.4,-4.7 42.4,-23.3 81,-37.2 2,-0.7 4,-1.4 6,-2.1 l 0.8,-0.3 c 1.9,-0.6 3.8,-1.3 5.6,-1.9 l 1.2,-0.4 c 1.8,-0.6 3.6,-1.1 5.4,-1.6 l 1.5,-0.5 c 1.7,-0.5 3.4,-1 5.1,-1.4 l 1.8,-0.5 c 1.6,-0.4 3.3,-0.8 4.9,-1.2 l 2,-0.5 c 1.5,-0.4 3.1,-0.7 4.6,-1 l 2.2,-0.5 c 1.5,-0.3 2.9,-0.6 4.3,-0.8 L 980,489 c 1.4,-0.2 2.7,-0.4 4,-0.6 l 2.5,-0.3 c 1.3,-0.2 2.5,-0.3 3.8,-0.4 l 2.9,-0.2 c 1.1,0 2.1,-0.2 3.2,-0.2 h 3.4 c 0.8,0 1.7,-0.1 2.5,-0.1 l 5.6,0.2 c 0.9,0 1.7,0.2 3.2,0.4 l 2.1,0.2 c 0.5,0 0.9,0.2 1.4,0.2 1.7,14 7.2,42.8 25.8,75.2 0,0 62.1,90.1 186.2,112.9 v 0 z"
         id="path5"
         style="fill:#021f66" />
      <path
         class="cls-1"
         d="m 871.1,503.6 c 2.3,-1.1 4.8,-2.3 7.3,-3.5 l 1.8,-0.9 c 2,-0.9 4,-1.9 6.1,-2.8 l 2.3,-1 c 2.7,-1.2 5.5,-2.4 8.3,-3.6 l 0.8,-0.3 c 2.6,-1.1 5.2,-2.2 7.8,-3.2 l 2.1,-0.8 c 2.9,-1.2 5.2,-2.1 7.6,-3 l 2.3,-0.9 c 3,-1.1 6,-2.2 9,-3.3 l 2.5,-0.8 c 2.4,-0.8 4.7,-1.6 7.1,-2.4 l 3,-1 c 3,-0.9 5.9,-1.8 8.9,-2.7 l 0.9,-0.3 c 3,-0.8 6.1,-1.6 9.1,-2.4 l 2.9,-0.7 c 2.4,-0.6 4.8,-1.1 7.2,-1.6 l 2.6,-0.5 c 3.1,-0.6 6.2,-1.1 9.3,-1.5 l 2.1,-0.3 c 2.5,-0.3 4.9,-0.6 7.3,-0.8 l 2.8,-0.2 c 2.7,-0.2 5.4,-0.3 8.1,-0.3 h 5.6 c 0.9,0 1.8,0.1 2.7,0.2 0.8,0 1.7,0.1 2.5,0.2 l 2,0.2 c 0.8,0 1.6,0.1 2.4,0.3 0.9,0.1 1.8,0.3 2.7,0.5 l 1.8,0.3 c 0.7,0.1 1.5,0.2 2.2,0.4 2.2,0.5 4.4,1.1 6.4,1.8 l 7.6,2.5 0.2,8 c 0.1,5.4 7.9,117.7 177.8,167.8 24.9,-47.8 123.9,-226 177.4,-269.7 l 8.4,-6.9 9.3,10.7 0.6,0.8 5,7 c 0.7,1 1.4,2.1 2.1,3.2 l 1,1.5 c 1,1.6 2,3.3 3.1,5.2 1.5,2.5 2.7,4.7 3.9,7.1 l 1,2 c 0.9,1.8 1.8,3.6 2.8,5.5 l 1.4,3 c 0.8,1.8 1.7,3.6 2.5,5.5 l 1.5,3.5 c 0.8,1.9 1.6,3.9 2.4,5.9 0.5,1.3 1,2.6 1.5,3.9 0.8,2.1 1.6,4.4 2.3,6.6 l 1.4,4 c 0.6,1.9 1.2,3.8 1.8,5.7 12,-127.6 32.3,-365.1 25.7,-451.5 -43.8,34.4 -162.8,133.6 -280.2,280.4 l -75.9,104.1 43.2,-108.7 c -28.4,-9.6 -79.4,-19.8 -133.7,3.8 -70.4,30.6 -124.5,107.5 -160.9,228.6 0.2,-0.1 0.5,-0.2 0.7,-0.3 l 8.4,-4.2 v 0 z"
         id="path6"
         style="fill:#021f66" />
      <path
         class="cls-1"
         d="m 1216.4,987.1 c 38.3,-4.8 61,-57.1 52.9,-121.5 -4.1,-32.6 -15.5,-61.5 -32.1,-81.2 -13.8,-16.5 -30,-25.4 -46.1,-25.4 -16.1,0 -3.6,0.1 -5.4,0.3 -17.4,2.2 -31.9,15.1 -41,36.5 -9.6,22.6 -12.6,53.3 -8.4,86.5 8.2,65.5 41.8,109.6 80.1,104.8 z"
         id="path7"
         style="fill:#021f66" />
      <path
         class="cls-1"
         d="m 1528.8,914.6 c 15.1,-1.9 28,-12.8 36.4,-30.6 9.1,-19.3 12.1,-45.3 8.6,-73.4 -3.5,-28 -13.3,-52.8 -27.5,-69.7 -11.8,-14.1 -25.6,-21.6 -39.2,-21.6 -13.6,0 -3.1,0 -4.6,0.3 -31.5,4 -49.1,48.2 -42,105.3 3.6,28.2 12.8,52.8 26,69.1 12.3,15.2 27.3,22.5 42.2,20.6 z"
         id="path8"
         style="fill:#021f66" />
      <path
         class="cls-1"
         d="m 1403.4,1108.8 c -15.7,25.2 -59.9,85.3 -138.5,110.4 -74.6,23.9 -159.6,10.4 -252.6,-40.1 l -1.5,-1 -0.5,0.6 c -20.9,25.4 -44.9,46.8 -71.5,63.5 271.6,132.8 454.5,65.2 560.4,-15.4 64.6,-49.2 107.8,-108.6 131.3,-151.2 -30.5,31.7 -74.7,66.2 -125.3,70.9 -36.3,3.3 -70.6,-9.4 -101.9,-37.8 v 0 z"
         id="path9"
         style="fill:#021f66" />
      <path
         class="cls-1"
         d="m 1800.9,807 c 1.1,3.2 2.1,6.3 3.1,9.5 l 1.3,4.2 c 1.4,4.5 2.7,9.1 3.8,13.7 0.3,1.5 1.4,7.2 2.8,16.6 l 3.7,33.6 c 0.3,3.6 0.5,7.3 0.7,11.2 l 0.7,18.2 c 30,-30.7 48.5,-61.9 55.8,-75.6 -19.2,-13.5 -49.5,-29.3 -74.8,-39.3 0.4,1.1 0.8,2.2 1.2,3.3 l 1.6,4.6 z"
         id="path10"
         style="fill:#021f66" />
      <path
         class="cls-1"
         d="m 1736.2,946.6 1.3,15.4 c 2.9,35.3 2.6,62.3 2,77.5 l 36.9,3.7 c 10.7,-29.8 16.6,-64.5 17.8,-103.3 0,-3.4 0.2,-6.8 0.2,-10.1 v -14 c -0.1,-1.8 -0.2,-3.6 -0.2,-5.3 0,0 -4.2,-81.2 -26.5,-125.1 -40.5,-80 -103.4,-120.9 -142.9,-138.2 75.7,99.2 102.4,215.4 111.2,299.5 h 0.1 z"
         id="path11"
         style="fill:#021f66" />
      <path
         class="cls-1"
         d="m 1767.5,1064.5 -35.7,43.2 c -0.9,3.3 -4.7,21.7 -5.9,25.4 22.7,-18.2 28.2,-36.2 41.6,-68.6 z"
         id="path12"
         style="fill:#021f66" />
      <path
         class="cls-1"
         d="m 1713.1,960.9 c -0.5,-9.1 -0.6,-48.7 -7.1,-82.8 -9.9,-52.9 -32.1,-119.3 -73.2,-185.7 2.7,6.5 5.6,13.6 8.6,21.1 2.3,5.7 4.6,11.7 6.8,18 l 2.9,8 c 21.2,59 45,150.3 40.6,227.3 l 21.3,-6 v 0 z"
         id="path13"
         style="fill:#021f66" />
      <path
         class="cls-1"
         d="m 775.8,1252.4 c 0,0 76,9 133,-21.9 31.5,-16.2 60.1,-38.9 84.9,-67.2 38.2,-46.8 62.8,-105.2 70.9,-168.7 11.7,-91.6 -12.5,-180.9 -66.3,-245.1 -1.3,-1.5 -2.6,-3 -3.9,-4.5 -0.8,-1 -1.7,-1.9 -2.6,-2.8 l -1.4,-1.5 c -5.6,-6.1 -10.6,-11.1 -15.5,-15.6 L 862,796.3 886.1,674.8 c -10.7,-3.1 -21.5,-5.4 -32.1,-6.7 -4.7,-0.6 -9.8,-1 -15.5,-1.4 -3.9,-0.2 -7.9,-0.4 -11.8,-0.4 -7.7,0 -15.9,0.5 -24.2,1.4 -19.6,2.2 -39.1,7.2 -57.7,14.7 -27.5,11.1 -53.3,27.5 -76.8,48.9 -54.5,49.8 -90,120.7 -100.1,199.8 -10.1,79.1 6.4,156.8 46.6,218.6 39.8,61.3 95.3,94.2 161.3,102.7 z M 656,959.2 c 12.2,-95 88.3,-163.8 169.8,-153.4 0.5,0 1,0.2 1.5,0.2 2.7,0.4 4.6,0.8 6.6,1.2 l 1.1,0.2 c 1.8,0.4 3.7,0.7 5.5,1.2 2.4,0.6 4.8,1.2 7.2,2 l 4.1,1.3 c 0.9,0.3 3.1,1.2 6.1,2.5 2.1,0.9 4.6,2 7.4,3.3 2.2,1 4.6,2.2 7,3.5 9.8,5.2 17.5,10.5 23.1,15.9 42.5,36.2 64.2,97.5 56.2,159.9 -11.2,88 -77.2,154.4 -153.4,154.4 -5.5,0 -11,-0.3 -16.4,-1.1 -39.8,-5.1 -74.8,-28 -98.6,-64.6 -23.4,-36 -33,-80.9 -27.2,-126.6 v 0 z"
         id="path14"
         style="fill:#021f66" />
      <path
         class="cls-1"
         d="m 784.7,1127.9 c 69.1,8.8 134,-51.2 144.5,-133.8 7,-54.9 -11.7,-108.6 -48.8,-140.1 l -0.5,-0.4 c -6.8,-6.7 -17.9,-12.5 -26,-16.2 -2.8,-1.3 -5.3,-2.3 -7.1,-3.1 -1.7,-0.7 -2.8,-1.1 -2.9,-1.1 -0.9,-0.3 -1.9,-0.6 -3,-0.9 l -3.7,-1.1 c -1.3,-0.4 -2.5,-0.8 -3.8,-1.1 -1.3,-0.3 -2.6,-0.5 -3.9,-0.7 l -3.9,-0.7 c -0.9,-0.2 -1.9,-0.4 -2.8,-0.5 h -1.1 c -4.3,-0.6 -8.5,-0.9 -12.5,-0.9 -64.9,0 -121.2,57.9 -131,134.7 -5.2,40.4 3.3,79.9 23.7,111.4 20.1,30.9 49.4,50.2 82.5,54.5 z M 736.6,969.5 c 2.6,-20.5 12,-38.9 26.4,-51.8 14.6,-13.2 32.7,-19.2 50.7,-16.8 4,0.5 8,1.4 11.8,2.8 2.3,0.8 13.5,5.2 20.4,11.8 19,16.2 28.7,43.6 25.1,71.3 -5,39.4 -35,69.2 -69.6,69.2 -2.5,0 -5,-0.2 -7.6,-0.5 -37.1,-4.7 -62.8,-43.3 -57.3,-85.9 v 0 z"
         id="path15"
         style="fill:#021f66" />
      <path
         class="cls-1"
         d="m 796.8,1033 c 11.8,1.5 23.6,-2.7 33.4,-11.7 10,-9.3 16.5,-22.6 18.4,-37.4 2.6,-20.3 -4.2,-40.1 -17.7,-51.5 l -0.6,-0.5 c -2.8,-2.8 -9.6,-5.8 -12.4,-6.8 -2.2,-0.8 -4.7,-1.3 -7.1,-1.7 -1.6,-0.2 -3.2,-0.3 -4.7,-0.3 -23.3,0 -43.5,21.2 -47.1,49.4 -3.9,30.2 13.1,57.4 37.8,60.6 z"
         id="path16"
         style="fill:#021f66" />
    </g>
  </g>
</svg>
