<?xml version="1.0" encoding="UTF-8" standalone="no"?>
<svg
   id="Ebene_4"
   data-name="Ebene 4"
   viewBox="0 0 2329.86 2690.3"
   version="1.1"
   sodipodi:docname="alles-weiß.svg"
   inkscape:version="1.4.2 (ebf0e940d0, 2025-05-08)"
   xmlns:inkscape="http://www.inkscape.org/namespaces/inkscape"
   xmlns:sodipodi="http://sodipodi.sourceforge.net/DTD/sodipodi-0.dtd"
   xmlns="http://www.w3.org/2000/svg"
   xmlns:svg="http://www.w3.org/2000/svg">
  <sodipodi:namedview
     id="namedview25"
     pagecolor="#505050"
     bordercolor="#ffffff"
     borderopacity="1"
     inkscape:showpageshadow="0"
     inkscape:pageopacity="0"
     inkscape:pagecheckerboard="1"
     inkscape:deskcolor="#505050"
     inkscape:zoom="0.71962233"
     inkscape:cx="1165.1945"
     inkscape:cy="1345.15"
     inkscape:window-width="3832"
     inkscape:window-height="2122"
     inkscape:window-x="0"
     inkscape:window-y="30"
     inkscape:window-maximized="1"
     inkscape:current-layer="g25" />
  <defs
     id="defs1">
    <style
       id="style1">
      .cls-1 {
        fill: #fff;
      }

      .cls-2 {
        fill: #ff7b00;
      }
    </style>
  </defs>
  <g
     id="g26"
     inkscape:label="VGC">
    <path
       class="cls-1"
       d="M2073.9,2088.3c-33,19-70.7,28.6-112,28.6s-62.1-5.4-88.5-15.9c-26.7-10.7-50-26.5-69.1-47-19-20.3-34-45.1-44.6-73.7-10.5-28.3-15.8-60.3-15.8-95s5.3-66.6,15.8-95c10.6-28.6,25.5-53.4,44.6-73.7,19.2-20.5,42.4-36.3,69.1-46.9,26.4-10.6,56.1-15.9,88.5-15.9s78.9,9.6,112,28.6c28.5,16.4,55.3,38.9,79.5,66.9l163.8-146.2c-40.1-49.1-90.4-87.6-149.6-114.4-63.6-28.8-137.8-43.4-220.7-43.4s-130.7,10.8-188.1,32c-55.8,20.7-104.9,50.3-146.1,88,8.3,8.7,15.3,16.5,21.6,24.2l8.7,10.7-136.3,120c-15.3,39.2-24.8,82-28.2,127.2h134.1v357.9c41.3,37.8,90.5,67.5,146.2,88.1,57.3,21.2,120.6,32,188.1,32s156.9-14.8,220.6-44c59.1-27.1,109.4-65.4,149.6-113.8l-163.8-146.2c-24.2,28.1-50.9,50.6-79.5,67h0l.1-.1Z"
       id="path1" />
    <path
       class="cls-1"
       d="M1358.2,2091.4l-12.1,4.9c-2.7,1.2-5.1,2.2-7.4,3-32.9,11.7-67.1,17.6-101.6,17.6s-63.7-5.6-90.5-16.6c-27-11-50.6-27-70.1-47.4-19.4-20.3-34.7-45.1-45.3-73.8-10.5-28.3-15.8-59.9-15.8-93.7s5.3-67.7,15.8-95.7c10.6-28.2,25.8-52.8,45.3-73.2,19.6-20.5,43.7-36.3,71.7-46.9,27.5-10.5,58.7-15.8,92.6-15.8s78.8,8.7,112.6,25.8c29.6,15,57.7,36.5,83.4,64.1l166.3-146.5c-4.4-5-9.2-10.2-14.6-15.7-1.4-1.4-2.8-2.8-4.2-4.1l-4.4-4.3c-1.4-1.4-2.8-2.8-4.2-4.1-35.7-33.6-77.9-60.9-125.3-81.3-65.3-28.1-140.9-42.3-224.6-42.3s-134.9,10.8-193.1,32c-10.4,3.8-21.2,8.2-32.8,13.5l-228.6,540.7c4,11.9,7.9,22.3,12.1,31.9,23.1,53.3,56,100.2,97.8,139.2,41.9,39.1,92.1,69.6,149.1,90.8,57.3,21.2,121,32,189.3,32s127.1-9.4,193.5-28.1c63.4-17.8,120.8-43.3,170.8-75.9v-345.4h-225.9v215.3h.2,0Z"
       id="path2" />
    <polygon
       class="cls-1"
       points="722.9 1465.2 500.4 1995.4 284.1 1465.2 0 1465.2 355.3 2305.6 624.4 2305.6 979.8 1465.2 722.9 1465.2"
       id="polygon2" />
  </g>
  <g
     id="g16"
     inkscape:label="Legios">
    <path
       class="cls-1"
       d="M1698.5,1134.3c3.9-9.3,9.1-22.6,11.9-33.7l.2-.8.6-2.5,29-35.1-24.6-2.5.9-11.1c0-.2.2-2.1.3-5.5l.6-25.4-.7-28c0-1.9-.2-3.8-.3-5.8l-.3-4.7-26.3,10.8c-4.2,17.8-16.1,64.5-29.7,88.8,4.7,10.8,19.4,41.7,38.3,55.5h.1Z"
       id="path3" />
    <path
       class="cls-1"
       d="M1457.9,539.7c.5,9.6.8,19.1,1.1,28.6v8.6c.2,6.8.3,13.5.3,20.2v10.7c0,6-.2,11.9-.3,17.8,0,3.2-.2,6.4-.3,9.6v2.8c16.2-7.9,32.8-11.9,49.5-11.9s17.1,1,25.6,3.1c19.1,4.6,37.9,14.1,56.2,28.5-47.7-72.2-99.7-106.4-131.7-121.8l-.4,3.9h0v-.1h0Z"
       id="path4" />
    <path
       class="cls-1"
       d="M1226.7,676.6c4.7-9.1,112.8-213.9,170.7-273.6,11.2,17.2,31,55.2,36.6,115.9.7,6.8,1.1,13.5,1.3,20.3v.8c2.1,40.3,2.1,79.9,0,117.5-6.8,119.7-33.7,191.9-45.2,217.9-53.3-39.2-151.1-166.8-152.1-168.2l-1.8-2.4-2.8-1.2c-39.1-16.3-76.2-24.6-110.3-24.6s-85.5,14.3-119.5,42.5c-7-7.3-13.7-13.8-20.5-19.6l-6.7-5.7-82.2,52.7,19.6-89-10.1-3.5c-15.4-5.3-31.1-9-46.8-11-29.6-3.8-59.2-2-88.4,5.4,26.9-43.4,74.6-101.6,82.8-111.5,8.4-4.7,42.4-23.3,81-37.2,2-.7,4-1.4,6-2.1l.8-.3c1.9-.6,3.8-1.3,5.6-1.9l1.2-.4c1.8-.6,3.6-1.1,5.4-1.6l1.5-.5c1.7-.5,3.4-1,5.1-1.4l1.8-.5c1.6-.4,3.3-.8,4.9-1.2l2-.5c1.5-.4,3.1-.7,4.6-1l2.2-.5c1.5-.3,2.9-.6,4.3-.8l2.3-.4c1.4-.2,2.7-.4,4-.6l2.5-.3c1.3-.2,2.5-.3,3.8-.4l2.9-.2c1.1,0,2.1-.2,3.2-.2h3.4c.8,0,1.7-.1,2.5-.1l5.6.2c.9,0,1.7.2,3.2.4l2.1.2c.5,0,.9.2,1.4.2,1.7,14,7.2,42.8,25.8,75.2,0,0,62.1,90.1,186.2,112.9h0l.1.3h0Z"
       id="path5" />
    <path
       class="cls-1"
       d="M871.1,503.6c2.3-1.1,4.8-2.3,7.3-3.5l1.8-.9c2-.9,4-1.9,6.1-2.8l2.3-1c2.7-1.2,5.5-2.4,8.3-3.6l.8-.3c2.6-1.1,5.2-2.2,7.8-3.2l2.1-.8c2.9-1.2,5.2-2.1,7.6-3l2.3-.9c3-1.1,6-2.2,9-3.3l2.5-.8c2.4-.8,4.7-1.6,7.1-2.4l3-1c3-.9,5.9-1.8,8.9-2.7l.9-.3c3-.8,6.1-1.6,9.1-2.4l2.9-.7c2.4-.6,4.8-1.1,7.2-1.6l2.6-.5c3.1-.6,6.2-1.1,9.3-1.5l2.1-.3c2.5-.3,4.9-.6,7.3-.8l2.8-.2c2.7-.2,5.4-.3,8.1-.3h5.6c.9,0,1.8.1,2.7.2.8,0,1.7.1,2.5.2l2,.2c.8,0,1.6.1,2.4.3.9.1,1.8.3,2.7.5l1.8.3c.7.1,1.5.2,2.2.4,2.2.5,4.4,1.1,6.4,1.8l7.6,2.5.2,8c.1,5.4,7.9,117.7,177.8,167.8,24.9-47.8,123.9-226,177.4-269.7l8.4-6.9,9.3,10.7.6.8,5,7c.7,1,1.4,2.1,2.1,3.2l1,1.5c1,1.6,2,3.3,3.1,5.2,1.5,2.5,2.7,4.7,3.9,7.1l1,2c.9,1.8,1.8,3.6,2.8,5.5l1.4,3c.8,1.8,1.7,3.6,2.5,5.5l1.5,3.5c.8,1.9,1.6,3.9,2.4,5.9.5,1.3,1,2.6,1.5,3.9.8,2.1,1.6,4.4,2.3,6.6l1.4,4c.6,1.9,1.2,3.8,1.8,5.7,12-127.6,32.3-365.1,25.7-451.5-43.8,34.4-162.8,133.6-280.2,280.4l-75.9,104.1,43.2-108.7c-28.4-9.6-79.4-19.8-133.7,3.8-70.4,30.6-124.5,107.5-160.9,228.6.2-.1.5-.2.7-.3l8.4-4.2h0l.2-.1h0Z"
       id="path6" />
    <path
       class="cls-1"
       d="M1216.4,987.1c38.3-4.8,61-57.1,52.9-121.5-4.1-32.6-15.5-61.5-32.1-81.2-13.8-16.5-30-25.4-46.1-25.4s-3.6.1-5.4.3c-17.4,2.2-31.9,15.1-41,36.5-9.6,22.6-12.6,53.3-8.4,86.5,8.2,65.5,41.8,109.6,80.1,104.8h0Z"
       id="path7" />
    <path
       class="cls-1"
       d="M1528.8,914.6c15.1-1.9,28-12.8,36.4-30.6,9.1-19.3,12.1-45.3,8.6-73.4-3.5-28-13.3-52.8-27.5-69.7-11.8-14.1-25.6-21.6-39.2-21.6s-3.1,0-4.6.3c-31.5,4-49.1,48.2-42,105.3,3.6,28.2,12.8,52.8,26,69.1,12.3,15.2,27.3,22.5,42.2,20.6h.1Z"
       id="path8" />
    <path
       class="cls-1"
       d="M1403.4,1108.8c-15.7,25.2-59.9,85.3-138.5,110.4-74.6,23.9-159.6,10.4-252.6-40.1l-1.5-1-.5.6c-20.9,25.4-44.9,46.8-71.5,63.5,271.6,132.8,454.5,65.2,560.4-15.4,64.6-49.2,107.8-108.6,131.3-151.2-30.5,31.7-74.7,66.2-125.3,70.9-36.3,3.3-70.6-9.4-101.9-37.8h0l.1.1Z"
       id="path9" />
    <path
       class="cls-1"
       d="M1800.9,807c1.1,3.2,2.1,6.3,3.1,9.5l1.3,4.2c1.4,4.5,2.7,9.1,3.8,13.7.3,1.5,1.4,7.2,2.8,16.6l3.7,33.6c.3,3.6.5,7.3.7,11.2l.7,18.2c30-30.7,48.5-61.9,55.8-75.6-19.2-13.5-49.5-29.3-74.8-39.3.4,1.1.8,2.2,1.2,3.3l1.6,4.6h.1Z"
       id="path10" />
    <path
       class="cls-1"
       d="M1736.2,946.6l1.3,15.4c2.9,35.3,2.6,62.3,2,77.5l36.9,3.7c10.7-29.8,16.6-64.5,17.8-103.3,0-3.4.2-6.8.2-10.1v-14c-.1-1.8-.2-3.6-.2-5.3,0,0-4.2-81.2-26.5-125.1-40.5-80-103.4-120.9-142.9-138.2,75.7,99.2,102.4,215.4,111.2,299.5h.1l.1-.1h0Z"
       id="path11" />
    <path
       class="cls-1"
       d="M1767.5,1064.5l-35.7,43.2c-.9,3.3-4.7,21.7-5.9,25.4,22.7-18.2,28.2-36.2,41.6-68.6h0Z"
       id="path12" />
    <path
       class="cls-1"
       d="M1713.1,960.9c-.5-9.1-.6-48.7-7.1-82.8-9.9-52.9-32.1-119.3-73.2-185.7,2.7,6.5,5.6,13.6,8.6,21.1,2.3,5.7,4.6,11.7,6.8,18l2.9,8c21.2,59,45,150.3,40.6,227.3l21.3-6h0l.1.1h0Z"
       id="path13" />
    <path
       class="cls-1"
       d="M775.8,1252.4s76,9,133-21.9c31.5-16.2,60.1-38.9,84.9-67.2,38.2-46.8,62.8-105.2,70.9-168.7,11.7-91.6-12.5-180.9-66.3-245.1-1.3-1.5-2.6-3-3.9-4.5-.8-1-1.7-1.9-2.6-2.8l-1.4-1.5c-5.6-6.1-10.6-11.1-15.5-15.6l-112.9,71.2,24.1-121.5c-10.7-3.1-21.5-5.4-32.1-6.7-4.7-.6-9.8-1-15.5-1.4-3.9-.2-7.9-.4-11.8-.4-7.7,0-15.9.5-24.2,1.4-19.6,2.2-39.1,7.2-57.7,14.7-27.5,11.1-53.3,27.5-76.8,48.9-54.5,49.8-90,120.7-100.1,199.8s6.4,156.8,46.6,218.6c39.8,61.3,95.3,94.2,161.3,102.7h0ZM656,959.2c12.2-95,88.3-163.8,169.8-153.4.5,0,1,.2,1.5.2,2.7.4,4.6.8,6.6,1.2l1.1.2c1.8.4,3.7.7,5.5,1.2,2.4.6,4.8,1.2,7.2,2l4.1,1.3c.9.3,3.1,1.2,6.1,2.5,2.1.9,4.6,2,7.4,3.3,2.2,1,4.6,2.2,7,3.5,9.8,5.2,17.5,10.5,23.1,15.9,42.5,36.2,64.2,97.5,56.2,159.9-11.2,88-77.2,154.4-153.4,154.4-5.5,0-11-.3-16.4-1.1-39.8-5.1-74.8-28-98.6-64.6-23.4-36-33-80.9-27.2-126.6h0v.1h0Z"
       id="path14" />
    <path
       class="cls-1"
       d="M784.7,1127.9c69.1,8.8,134-51.2,144.5-133.8,7-54.9-11.7-108.6-48.8-140.1l-.5-.4c-6.8-6.7-17.9-12.5-26-16.2-2.8-1.3-5.3-2.3-7.1-3.1-1.7-.7-2.8-1.1-2.9-1.1-.9-.3-1.9-.6-3-.9l-3.7-1.1c-1.3-.4-2.5-.8-3.8-1.1s-2.6-.5-3.9-.7l-3.9-.7c-.9-.2-1.9-.4-2.8-.5h-1.1c-4.3-.6-8.5-.9-12.5-.9-64.9,0-121.2,57.9-131,134.7-5.2,40.4,3.3,79.9,23.7,111.4,20.1,30.9,49.4,50.2,82.5,54.5h.3ZM736.6,969.5c2.6-20.5,12-38.9,26.4-51.8,14.6-13.2,32.7-19.2,50.7-16.8,4,.5,8,1.4,11.8,2.8,2.3.8,13.5,5.2,20.4,11.8,19,16.2,28.7,43.6,25.1,71.3-5,39.4-35,69.2-69.6,69.2-2.5,0-5-.2-7.6-.5-37.1-4.7-62.8-43.3-57.3-85.9h0l.1-.1h0Z"
       id="path15" />
    <path
       class="cls-1"
       d="M796.8,1033c11.8,1.5,23.6-2.7,33.4-11.7,10-9.3,16.5-22.6,18.4-37.4,2.6-20.3-4.2-40.1-17.7-51.5l-.6-.5c-2.8-2.8-9.6-5.8-12.4-6.8-2.2-.8-4.7-1.3-7.1-1.7-1.6-.2-3.2-.3-4.7-.3-23.3,0-43.5,21.2-47.1,49.4-3.9,30.2,13.1,57.4,37.8,60.6v-.1h0Z"
       id="path16" />
  </g>
  <path
     class="cls-2"
     d="M2322.1,2219h0c-5.1-6.6-16.7-17.2-38.6-14l-1313.6,177.9c-14.5,2-26,4.1-35.3,6.6-13.6,3.7-25.1,10-34.4,18.9-8.7,8.4-15.6,19.3-20.5,32.4-3.5,9.4-7.1,21.4-11,36.8l-29.1,114.5c-8.2,32.9-5.6,57.4,8,75,11.9,15.4,30.1,23.2,54.3,23.2s11.8-.4,18.1-1.3l1317.5-181.9c4.1-.6,16.8-2.3,26.8-12.5,6.9-7.1,63.4-238.3,63.4-238.3,1.5-5.5,6.1-22.1-5.6-37.3h0Z"
     id="path17"
     inkscape:label="Hintergrund" />
  <g
     id="g25"
     inkscape:label="Gemeinde">
    <g
       id="g24"
       inkscape:label="Gemeinde-Text">
      <path
         class="cls-1"
         d="M964.4,2564.5c-3.2.4-5,.3-5.6-.4s-.4-2.8.5-6.1l8-32c.9-3.3,1.8-5.5,2.7-6.4s2.9-1.6,6.1-2l69.5-9.5c3.2-.4,5-.3,5.6.4s.4,2.8-.5,6.1l-16.3,64.4c-3.6,14-6.9,25.1-9.9,33.3s-6.9,14.6-11.8,19.1c-4.9,4.6-11.2,7.9-18.9,10s-18,4-30.8,5.8l-47.9,6.6c-19.8,2.7-32.9,0-39.3-8.4-6.4-8.3-6.9-23.1-1.6-44.5l29-114.3c3.6-14,6.9-25.1,9.9-33.2,3-8.1,7-14.5,11.8-19.1,4.9-4.7,11.2-8.1,18.9-10.1,7.7-2.1,18-4,30.8-5.8l47.9-6.6c19.8-2.7,32.9,0,39.3,8.4,6.4,8.3,6.8,23.1,1.3,44.5l-4.6,19.2c-.9,3.3-1.8,5.5-2.7,6.4-.9.9-2.9,1.6-6.1,2l-40.2,5.5c-3.2.4-5,.3-5.6-.4s-.4-2.8.5-6.1l3.5-14.6c.9-3.8,1.4-6.7,1.7-8.8s0-3.7-.7-4.7c-.7-1.1-2.1-1.6-4-1.7-2,0-4.7.1-8.3.6l-20.9,2.9c-3.4.5-6.2,1-8.4,1.7-2.2.6-4,1.6-5.3,3s-2.4,3.1-3.4,5.4c-1,2.3-1.9,5.2-2.8,8.8l-26.6,104.7c-2,7.4-2.3,11.9-.9,13.5,1.4,1.6,5.4,2,12.2,1.1l21.3-2.9c3.4-.5,6.2-1,8.4-1.7,2.2-.6,4-1.6,5.3-3,1.3-1.3,2.4-3.1,3.4-5.4.9-2.3,1.9-5.2,2.8-8.8l4.8-19.9-22.3,3.1h0l.2-.1h0Z"
         id="path18"
         inkscape:label="G" />
      <path
         class="cls-1"
         d="M1189.2,2569.1c3.2-.4,5-.3,5.6.4s.4,2.8-.5,6.1l-8.3,32.1c-.9,3.3-1.8,5.5-2.7,6.4s-2.9,1.6-6.1,2l-113.7,15.6c-3.2.4-5,.3-5.6-.4s-.4-2.8.5-6.1l54.9-216.9c.9-3.3,1.8-5.5,2.7-6.4.9-.9,2.9-1.6,6.1-2l110.7-15.1c3.2-.4,5-.3,5.6.4s.4,2.8-.5,6.1l-8.3,32.1c-.9,3.3-1.8,5.5-2.7,6.4-.9.9-2.9,1.6-6.1,2l-63.4,8.7-11.2,44.1,57.4-7.9c3.2-.4,5.1-.3,5.7.4.7.7.6,2.7-.4,6.1l-8.3,32.1c-.9,3.3-1.8,5.5-2.7,6.4-.9.9-2.9,1.6-6.1,2l-57.4,7.9-11.8,46.6,66.8-9.1h-.2Z"
         id="path19"
         inkscape:label="E1" />
      <path
         class="cls-1"
         d="M1268.5,2596.4c-.7,3.3-1.5,5.4-2.4,6.4-.9.9-2.9,1.6-6.1,2l-40.2,5.5c-3.2.4-4.9.3-5.4-.5-.4-.7-.3-2.8.4-6.1l55.2-216.9c.7-3.3,1.5-5.4,2.4-6.4.9-.9,2.9-1.6,6.1-2l47.9-6.6c3.2-.4,5.1-.4,5.8,0,.8.5,1.2,2.4,1.5,5.8l6.6,113.9,66.6-123.9c2-3.7,3.5-5.9,4.6-6.6,1.1-.7,3.1-1.3,6.3-1.7l47.9-6.6c3.2-.4,4.9-.3,5.4.5.4.8.3,2.8-.4,6.1l-55.2,216.9c-.7,3.3-1.5,5.4-2.4,6.4-.9.9-2.9,1.6-6.1,2l-40.2,5.5c-3.2.4-4.9.3-5.4-.5-.4-.7-.3-2.8.4-6.1l25.2-99.4-55.9,103.9c-2,3.7-3.5,5.9-4.6,6.6-1.1.7-3.2,1.3-6.3,1.7l-13.8,1.9c-3.2.4-5.1.4-5.8,0-.8-.5-1.1-2.4-1.2-5.9l-5.8-95.4-25.2,99.4h0l.1.1h0Z"
         id="path20"
         inkscape:label="M" />
      <path
         class="cls-1"
         d="M1587,2514.7c3.2-.4,5-.3,5.6.4s.4,2.8-.5,6.1l-8.3,32.1c-.9,3.3-1.8,5.5-2.7,6.4-.9.9-2.9,1.6-6.1,2l-113.7,15.6c-3.2.4-5,.3-5.6-.4s-.4-2.8.5-6.1l54.9-216.9c.9-3.3,1.8-5.5,2.7-6.4.9-.9,2.9-1.6,6.1-2l110.7-15.1c3.2-.4,5-.3,5.6.4s.4,2.8-.5,6.1l-8.3,32.1c-.9,3.3-1.8,5.5-2.7,6.4-.9.9-2.9,1.6-6.1,2l-63.4,8.7-11.2,44.1,57.4-7.9c3.2-.4,5.1-.3,5.7.4.7.7.6,2.7-.4,6.1l-8.3,32.1c-.9,3.3-1.8,5.5-2.7,6.4-.9.9-2.9,1.6-6.1,2l-57.4,7.9-11.8,46.6,66.8-9.1h-.2Z"
         id="path21"
         inkscape:label="E2" />
      <path
         class="cls-1"
         d="M1728.4,2320.3c3.1-.3,5.5,2.6,4.8,5.6l-21,83.1-11.8,47-22.6,89.1c-.7,2.8-3,4.8-5.8,5.2l-42.5,5.8c-3.2.4-5,.3-5.6-.4s-.4-2.8.5-6.1l54.9-216.9c.9-3.3,1.8-5.5,2.7-6.4.9-.9,2.9-1.6,6.1-2l40.2-3.9h0l.1-.1h0Z"
         id="path25"
         inkscape:label="I" />
      <path
         class="cls-1"
         d="M1777.4,2526.8c-.9,3.3-1.8,5.5-2.7,6.4-.9.9-2.9,1.6-6.1,2l-40.2,5.5c-3.2.4-5,.3-5.6-.4s-.4-2.8.5-6.1l54.9-216.9c.9-3.3,1.8-5.5,2.7-6.4.9-.9,2.9-1.6,6.1-2l42.9-5.9c3.2-.4,5.1-.4,5.8,0,.8.5,1.3,2.3,1.8,5.4l16.4,100.2,26.8-105.4c.9-3.3,1.8-5.5,2.7-6.4.9-.9,2.9-1.6,6.1-2l40.2-5.5c3.2-.4,4.9-.3,5.4.5.4.8.3,2.8-.4,6.1l-54.9,216.9c-.9,3.3-1.8,5.5-2.7,6.4-.9.9-2.9,1.6-6.1,2l-42.5,5.8c-3.2.4-5.1.4-5.8,0-.8-.5-1.5-2.3-2.1-5.4l-16.6-100.9-26.7,106.1h.1,0Z"
         id="path22"
         inkscape:label="N" />
      <path
         class="cls-1"
         d="M1925.1,2513.8c-3.2.4-5,.3-5.6-.4s-.4-2.8.5-6.1l54.9-216.9c.9-3.3,1.8-5.5,2.7-6.4.9-.9,2.9-1.6,6.1-2l93.1-12.7c19.8-2.7,32.9,0,39.3,8.4,6.4,8.3,6.9,23.1,1.6,44.5l-28.2,110.8c-3.6,14-6.9,25.1-9.9,33.3s-6.9,14.6-11.8,19.1c-4.9,4.6-11.2,7.9-18.9,10s-18,4-30.8,5.8l-93.1,12.7h0l.1-.1h0ZM2016.9,2455.9c3.4-.5,6.1-1,8.2-1.6s3.9-1.6,5.3-3c1.4-1.3,2.6-3.2,3.6-5.5.9-2.3,1.9-5.2,2.8-8.8l26.6-104.7c1.8-7.4,2-11.8.7-13.5s-5.4-2-12.4-1.1l-32.7,4.5-34.7,138.1,32.7-4.5h0l-.1.1h0Z"
         id="path23"
         inkscape:label="D" />
      <path
         class="cls-1"
         d="M2244.7,2424.8c3.1-.4,5-.3,5.6.4s.4,2.8-.5,6.1l-8.3,32.1c-.9,3.3-1.8,5.5-2.7,6.4s-2.9,1.6-6.1,2l-113.7,15.6c-3.1.4-5,.3-5.6-.4s-.4-2.8.5-6.1l54.9-216.9c.9-3.3,1.8-5.5,2.7-6.4s2.9-1.6,6.1-2l110.7-15.1c3.1-.4,5-.3,5.6.4s.4,2.8-.5,6.1l-8.3,32.1c-.9,3.3-1.8,5.5-2.7,6.4s-2.9,1.6-6.1,2l-63.4,8.7-11.1,44.1,57.4-7.9c3.1-.4,5.1-.3,5.7.4.7.7.6,2.7-.4,6.1l-8.3,32.1c-.9,3.3-1.8,5.5-2.7,6.4s-2.9,1.6-6.1,2l-57.4,7.9-11.8,46.6,66.8-9.1h-.3,0Z"
         id="path24"
         inkscape:label="E3" />
    </g>
  </g>
</svg>
